<mxfile host="app.diagrams.net" agent="Mozilla/5.0 (Windows NT 10.0; Win64; x64) AppleWebKit/537.36 (KHTML, like Gecko) Chrome/126.0.0.0 Safari/537.36" version="26.2.12">
  <diagram name="第 1 页" id="mHgvlZhRuBVBcIdMYhnB">
    <mxGraphModel dx="985" dy="570" grid="1" gridSize="10" guides="1" tooltips="1" connect="1" arrows="1" fold="1" page="1" pageScale="1" pageWidth="827" pageHeight="1169" math="0" shadow="0">
      <root>
        <mxCell id="0" />
        <mxCell id="1" parent="0" />
        <mxCell id="s1By2t2rahIJtPeYxL0m-7" value="" style="whiteSpace=wrap;html=1;align=center;fillColor=#d5e8d4;strokeColor=none;" parent="1" vertex="1">
          <mxGeometry x="160" y="500" width="390" height="400" as="geometry" />
        </mxCell>
        <mxCell id="s1By2t2rahIJtPeYxL0m-9" value="&lt;font style=&quot;font-size: 10px;&quot;&gt;JVM&lt;/font&gt;" style="whiteSpace=wrap;html=1;align=center;fillColor=#d5e8d4;strokeColor=none;" parent="1" vertex="1">
          <mxGeometry x="160" y="501" width="64" height="20" as="geometry" />
        </mxCell>
        <mxCell id="s1By2t2rahIJtPeYxL0m-10" value="&lt;font style=&quot;font-size: 8px;&quot;&gt;Native &lt;span style=&quot;&quot; class=&quot;hljs-keyword&quot;&gt;Method&lt;/span&gt; Stack&lt;/font&gt;" style="whiteSpace=wrap;html=1;align=center;fillColor=#f8cecc;strokeColor=none;" parent="1" vertex="1">
          <mxGeometry x="430" y="530" width="110" height="60" as="geometry" />
        </mxCell>
        <mxCell id="s1By2t2rahIJtPeYxL0m-11" value="&lt;font style=&quot;font-size: 8px;&quot;&gt;Program Counter (PC)&lt;/font&gt;" style="whiteSpace=wrap;html=1;align=center;fillColor=#bac8d3;strokeColor=none;" parent="1" vertex="1">
          <mxGeometry x="170" y="530" width="110" height="60" as="geometry" />
        </mxCell>
        <mxCell id="s1By2t2rahIJtPeYxL0m-12" value="&lt;font style=&quot;font-size: 8px;&quot;&gt;JVM Stack                 &lt;/font&gt;" style="whiteSpace=wrap;html=1;align=center;fillColor=#cdeb8b;strokeColor=none;" parent="1" vertex="1">
          <mxGeometry x="300" y="530" width="110" height="60" as="geometry" />
        </mxCell>
        <mxCell id="s1By2t2rahIJtPeYxL0m-13" value="" style="whiteSpace=wrap;html=1;align=center;fillColor=#fff2cc;strokeColor=none;" parent="1" vertex="1">
          <mxGeometry x="170" y="600" width="370" height="200" as="geometry" />
        </mxCell>
        <mxCell id="s1By2t2rahIJtPeYxL0m-14" value="" style="whiteSpace=wrap;html=1;align=center;fillColor=#dae8fc;strokeColor=none;" parent="1" vertex="1">
          <mxGeometry x="177" y="630" width="354" height="110" as="geometry" />
        </mxCell>
        <mxCell id="s1By2t2rahIJtPeYxL0m-15" value="&lt;font style=&quot;font-size: 10px;&quot;&gt;Heap&lt;/font&gt;" style="whiteSpace=wrap;html=1;align=center;fillColor=#fff2cc;strokeColor=none;" parent="1" vertex="1">
          <mxGeometry x="170" y="603" width="48" height="20" as="geometry" />
        </mxCell>
        <mxCell id="s1By2t2rahIJtPeYxL0m-19" value="&lt;font style=&quot;font-size: 8px;&quot;&gt;Eden&amp;nbsp;&lt;/font&gt;" style="whiteSpace=wrap;html=1;align=center;strokeColor=none;fillColor=#B29EFF;" parent="1" vertex="1">
          <mxGeometry x="185" y="657" width="242" height="74" as="geometry" />
        </mxCell>
        <mxCell id="s1By2t2rahIJtPeYxL0m-16" value="&lt;font style=&quot;font-size: 8px;&quot;&gt;Young Generation&lt;/font&gt;" style="whiteSpace=wrap;html=1;align=center;fillColor=#dae8fc;strokeColor=none;" parent="1" vertex="1">
          <mxGeometry x="180" y="630" width="71" height="20" as="geometry" />
        </mxCell>
        <mxCell id="s1By2t2rahIJtPeYxL0m-17" value="&lt;font style=&quot;font-size: 8px;&quot;&gt;Survivor1&amp;nbsp;&lt;/font&gt;" style="whiteSpace=wrap;html=1;align=center;strokeColor=none;" parent="1" vertex="1">
          <mxGeometry x="484" y="656" width="40" height="74" as="geometry" />
        </mxCell>
        <mxCell id="s1By2t2rahIJtPeYxL0m-18" value="&lt;font style=&quot;font-size: 8px;&quot;&gt;Survivor0&amp;nbsp;&lt;/font&gt;" style="whiteSpace=wrap;html=1;align=center;strokeColor=none;" parent="1" vertex="1">
          <mxGeometry x="435" y="656" width="41" height="74" as="geometry" />
        </mxCell>
        <mxCell id="s1By2t2rahIJtPeYxL0m-20" value="" style="whiteSpace=wrap;html=1;align=center;strokeColor=none;fillColor=#dae8fc;" parent="1" vertex="1">
          <mxGeometry x="177" y="750" width="353" height="42" as="geometry" />
        </mxCell>
        <mxCell id="s1By2t2rahIJtPeYxL0m-21" value="&lt;font style=&quot;font-size: 8px;&quot;&gt;&lt;span style=&quot;&quot; class=&quot;hljs-keyword&quot;&gt;Old&lt;/span&gt; Generation&lt;/font&gt;" style="whiteSpace=wrap;html=1;align=center;strokeColor=none;fillColor=#dae8fc;" parent="1" vertex="1">
          <mxGeometry x="177" y="750" width="66" height="20" as="geometry" />
        </mxCell>
        <mxCell id="s1By2t2rahIJtPeYxL0m-22" value="" style="whiteSpace=wrap;html=1;align=center;fillColor=#fad7ac;strokeColor=none;" parent="1" vertex="1">
          <mxGeometry x="170" y="810" width="370" height="80" as="geometry" />
        </mxCell>
        <mxCell id="s1By2t2rahIJtPeYxL0m-23" value="&lt;font style=&quot;font-size: 10px;&quot;&gt;Non&lt;span style=&quot;&quot; class=&quot;hljs-operator&quot;&gt;-&lt;/span&gt;Heap Memory&lt;/font&gt;" style="whiteSpace=wrap;html=1;align=center;fillColor=#fad7ac;strokeColor=none;" parent="1" vertex="1">
          <mxGeometry x="175" y="810" width="90" height="20" as="geometry" />
        </mxCell>
        <mxCell id="s1By2t2rahIJtPeYxL0m-24" value="&lt;font style=&quot;font-size: 8px;&quot;&gt;Metaspace&amp;nbsp;&amp;nbsp;&lt;/font&gt;" style="whiteSpace=wrap;html=1;align=center;fillColor=#b1ddf0;strokeColor=none;" parent="1" vertex="1">
          <mxGeometry x="190" y="830" width="100" height="50" as="geometry" />
        </mxCell>
        <mxCell id="s1By2t2rahIJtPeYxL0m-25" value="" style="whiteSpace=wrap;html=1;align=center;fillColor=#d0cee2;strokeColor=none;" parent="1" vertex="1">
          <mxGeometry x="300" y="830" width="110" height="50" as="geometry" />
        </mxCell>
        <mxCell id="s1By2t2rahIJtPeYxL0m-26" value="&lt;font style=&quot;font-size: 8px;&quot;&gt;Direct Memory&lt;/font&gt;" style="whiteSpace=wrap;html=1;align=center;fillColor=#ffcccc;strokeColor=none;" parent="1" vertex="1">
          <mxGeometry x="420" y="830" width="100" height="50" as="geometry" />
        </mxCell>
        <mxCell id="T9lqBcni8PrYOXb0f2QX-1" value="&lt;font style=&quot;font-size: 8px;&quot;&gt;Code Cache&lt;/font&gt;" style="whiteSpace=wrap;html=1;align=center;fillColor=#d0cee2;strokeColor=none;" vertex="1" parent="1">
          <mxGeometry x="300" y="831" width="50" height="10" as="geometry" />
        </mxCell>
        <mxCell id="T9lqBcni8PrYOXb0f2QX-2" value="&lt;span class=&quot;css-1uejj8v&quot;&gt;profiled nmethods&lt;/span&gt;" style="whiteSpace=wrap;html=1;align=center;fillColor=#7B63E2;strokeColor=none;fontSize=9;" vertex="1" parent="1">
          <mxGeometry x="305" y="847" width="100" height="10" as="geometry" />
        </mxCell>
        <mxCell id="T9lqBcni8PrYOXb0f2QX-3" value="&lt;span class=&quot;css-1uejj8v&quot;&gt;non-profiled&amp;nbsp; nmethods&lt;/span&gt;" style="whiteSpace=wrap;html=1;align=center;fillColor=#8CBCE2;strokeColor=none;fontSize=9;" vertex="1" parent="1">
          <mxGeometry x="305" y="857" width="100" height="10" as="geometry" />
        </mxCell>
        <mxCell id="T9lqBcni8PrYOXb0f2QX-4" value="&lt;span class=&quot;css-1uejj8v&quot;&gt;non-nmethods&lt;/span&gt;" style="whiteSpace=wrap;html=1;align=center;fillColor=#74E2C3;strokeColor=none;fontSize=9;" vertex="1" parent="1">
          <mxGeometry x="305" y="867" width="100" height="10" as="geometry" />
        </mxCell>
      </root>
    </mxGraphModel>
  </diagram>
</mxfile>
